<?xml version="1.0" encoding="UTF-8"?><svg id="Layer_1" xmlns="http://www.w3.org/2000/svg" viewBox="0 0 273.49 316.87"><defs><style>.cls-1{stroke-linecap:round;stroke-linejoin:round;}.cls-1,.cls-2{fill:none;stroke:#f05441;stroke-width:2px;}.cls-2{stroke-miterlimit:10;}</style></defs><g><polygon class="cls-2" points="12.45 235.41 12.45 89.65 134.24 24.37 255.89 88.76 255.89 235.41 134.17 303.68 12.45 235.41"/><polygon class="cls-2" points="40 107.05 40 217.83 134.17 269.16 227.3 219.18 227.3 107.05 133.65 56.06 40 107.05"/><line class="cls-2" x1="12.45" y1="89.65" x2="40" y2="107.05"/><line class="cls-2" x1="227.3" y1="107.05" x2="255.89" y2="88.76"/><line class="cls-2" x1="134.17" y1="269.16" x2="134.17" y2="303.68"/></g><g><g><polyline class="cls-1" points="134.09 163.88 134.09 201.31 101.68 182.6"/><polyline class="cls-1" points="166.51 182.6 134.09 201.31 134.09 163.88"/><polyline class="cls-1" points="134.09 163.88 166.51 145.17 166.51 182.6"/><polygon class="cls-1" points="166.51 145.17 134.09 163.88 101.68 145.17 134.09 126.45 166.51 145.17"/><line class="cls-1" x1="101.68" y1="145.17" x2="101.68" y2="182.6"/></g><g><polyline class="cls-1" points="134.09 207.2 134.09 244.63 101.68 225.91"/><polyline class="cls-1" points="166.51 225.91 134.09 244.63 134.09 207.2"/><polyline class="cls-1" points="134.09 207.2 166.51 188.48 166.51 225.91"/><line class="cls-1" x1="134.09" y1="207.2" x2="101.68" y2="188.48"/><line class="cls-1" x1="101.68" y1="188.48" x2="101.68" y2="225.91"/></g><g><polyline class="cls-1" points="203.44 203.97 171.02 222.69 171.02 185.26"/><polyline class="cls-1" points="171.02 185.26 203.44 166.54 203.44 203.97"/></g><polyline class="cls-1" points="203.07 161.31 170.66 180.03 170.66 142.6"/><polyline class="cls-1" points="170.66 142.6 203.07 123.89 203.07 161.31"/><polygon class="cls-1" points="203.07 123.89 170.66 142.6 138.24 123.89 170.66 105.17 203.07 123.89"/><polygon class="cls-1" points="166.51 102.14 134.1 120.86 101.68 102.14 134.1 83.43 166.51 102.14"/><g><polyline class="cls-1" points="97.33 142.6 97.33 180.03 64.91 161.31"/><polygon class="cls-1" points="129.74 123.89 97.33 142.6 64.91 123.89 97.33 105.17 129.74 123.89"/><line class="cls-1" x1="64.91" y1="123.89" x2="64.91" y2="161.31"/><line class="cls-1" x1="129.74" y1="123.89" x2="97.33" y2="142.6"/></g><g><polyline class="cls-1" points="97.33 184.91 97.33 222.34 64.91 203.62"/><line class="cls-1" x1="97.33" y1="184.91" x2="64.91" y2="166.19"/><line class="cls-1" x1="64.91" y1="166.19" x2="64.91" y2="203.62"/></g></g></svg>